<svg width="240" height="240" viewBox="0 0 240 240" fill="none" xmlns="http://www.w3.org/2000/svg">
<circle cx="120" cy="120" r="120" fill="#C8FF6A"/>
<path d="M72.528 164.328L81.488 72.168C82 68.9253 83.5787 66.536 86.224 65C87.248 64.4027 88.4 64.0613 89.68 63.976C128.421 61.672 147.28 77.5013 146.256 111.464C145.829 124.264 142.245 135.144 135.504 144.104C128.848 152.979 120.4 159.037 110.16 162.28C99.92 165.523 87.76 166.717 73.68 165.864C72.8267 165.864 72.4427 165.352 72.528 164.328ZM82.384 156.264C94.8427 156.947 105.04 156.008 112.976 153.448C120.912 150.803 126.373 147.432 129.36 143.336C133.712 137.448 136.101 129.128 136.528 118.376C136.955 103.528 133.371 92.392 125.776 84.968C118.181 77.4587 106.405 73.6187 90.448 73.448L82.384 156.264ZM157.722 149.352C161.05 145.512 164.122 145.597 166.938 149.608C169.327 152.936 169.114 156.179 166.298 159.336C162.97 163.091 160.111 163.091 157.722 159.336C155.333 155.496 155.333 152.168 157.722 149.352Z" fill="black"/>
</svg>
